<svg width="12" height="10" viewBox="0 0 12 10" fill="none" xmlns="http://www.w3.org/2000/svg">
<path d="M11.3333 5.1829C11.3333 5.43603 11.1452 5.64523 10.9012 5.67834L10.8333 5.6829L2.04398 5.6825L5.2193 8.84486C5.41499 9.0397 5.41567 9.35628 5.22083 9.55196C5.0437 9.72985 4.76596 9.74659 4.5699 9.60177L4.51372 9.55348L0.480389 5.53748C0.454595 5.5118 0.432191 5.484 0.413176 5.45465C0.407805 5.44582 0.402338 5.43678 0.397156 5.42756C0.392388 5.41965 0.388081 5.41144 0.384016 5.40315C0.378372 5.39107 0.372857 5.3786 0.367849 5.36587C0.363781 5.35606 0.360384 5.34652 0.357285 5.3369C0.353601 5.32497 0.350022 5.31226 0.346944 5.29935C0.344655 5.29034 0.342842 5.28167 0.341261 5.27296C0.339038 5.26001 0.337145 5.2466 0.335794 5.23304C0.334629 5.22269 0.333927 5.21244 0.333539 5.20218C0.333439 5.19596 0.333313 5.18945 0.333313 5.1829L0.333563 5.16353C0.333946 5.15372 0.334617 5.14392 0.335575 5.13413L0.333313 5.1829C0.333313 5.15135 0.336235 5.12048 0.341825 5.09055C0.343121 5.0834 0.344666 5.07606 0.346375 5.06875C0.349927 5.0537 0.354032 5.03921 0.358758 5.025C0.361077 5.01794 0.36378 5.0104 0.366669 5.00291C0.372511 4.98786 0.378862 4.97352 0.385849 4.95955C0.389094 4.95298 0.39273 4.9461 0.396536 4.9393C0.402784 4.92819 0.409222 4.91764 0.416028 4.90735C0.420831 4.90007 0.426148 4.89249 0.431702 4.88504L0.436028 4.87927C0.449499 4.86167 0.464113 4.845 0.479759 4.82935L0.480359 4.82889L4.51369 0.812219C4.70936 0.617362 5.02594 0.618017 5.2208 0.813683C5.39794 0.991561 5.4135 1.26937 5.26786 1.46481L5.21933 1.52079L2.04531 4.6825L10.8333 4.6829C11.1095 4.6829 11.3333 4.90676 11.3333 5.1829Z" fill="#4F4F4F"/>
</svg>
