<svg width="20" height="21" viewBox="0 0 20 21" fill="none" xmlns="http://www.w3.org/2000/svg">
<path fill-rule="evenodd" clip-rule="evenodd" d="M10.2672 0.000511169C10.9832 0.000511169 11.6792 0.294511 12.1782 0.805511C12.6762 1.31951 12.9512 2.02451 12.9302 2.73951C12.9322 2.90051 12.9852 3.08651 13.0812 3.24951C13.2402 3.51951 13.4912 3.70951 13.7892 3.78751C14.0872 3.86151 14.3992 3.82151 14.6642 3.66451C15.9442 2.93351 17.5732 3.37151 18.3042 4.64151L18.9272 5.72051C18.9432 5.74951 18.9572 5.77751 18.9692 5.80651C19.6312 7.05751 19.1892 8.63251 17.9592 9.35151C17.7802 9.45451 17.6352 9.59851 17.5352 9.77251C17.3802 10.0415 17.3372 10.3615 17.4152 10.6555C17.4952 10.9555 17.6862 11.2045 17.9552 11.3585C18.5622 11.7075 19.0152 12.2955 19.1962 12.9745C19.3772 13.6525 19.2782 14.3885 18.9252 14.9955L18.2612 16.1015C17.5302 17.3575 15.9012 17.7925 14.6342 17.0605C14.4652 16.9635 14.2702 16.9105 14.0762 16.9055H14.0702C13.7812 16.9055 13.4842 17.0285 13.2682 17.2435C13.0492 17.4625 12.9292 17.7545 12.9312 18.0645C12.9242 19.5335 11.7292 20.7215 10.2672 20.7215H9.01421C7.54521 20.7215 6.35021 19.5275 6.35021 18.0585C6.34821 17.8775 6.29621 17.6895 6.19921 17.5265C6.04221 17.2525 5.78821 17.0565 5.49521 16.9785C5.20421 16.9005 4.88521 16.9435 4.62321 17.0955C3.99521 17.4455 3.25621 17.5305 2.58021 17.3405C1.90521 17.1495 1.32221 16.6855 0.980205 16.0705L0.355205 14.9935C-0.375795 13.7255 0.0592053 12.1005 1.32521 11.3685C1.68421 11.1615 1.90721 10.7755 1.90721 10.3615C1.90721 9.94751 1.68421 9.56051 1.32521 9.35351C0.0582054 8.61751 -0.375795 6.98851 0.354205 5.72051L1.03221 4.60751C1.75321 3.35351 3.38321 2.91151 4.65421 3.64151C4.82721 3.74451 5.01521 3.79651 5.20621 3.79851C5.82921 3.79851 6.3502 3.28451 6.36021 2.65251C6.3562 1.95551 6.63121 1.28651 7.13221 0.781511C7.63521 0.277511 8.30321 0.000511169 9.01421 0.000511169H10.2672ZM10.2672 1.50051H9.01421C8.70421 1.50051 8.41421 1.62151 8.19521 1.83951C7.97721 2.05851 7.85821 2.34951 7.86021 2.65951C7.83921 4.12151 6.64421 5.29851 5.19721 5.29851C4.7332 5.29351 4.28621 5.16851 3.89821 4.93651C3.35321 4.62651 2.64121 4.81751 2.32221 5.37251L1.64521 6.48551C1.33521 7.02351 1.52521 7.73451 2.07721 8.05551C2.89621 8.52951 3.40721 9.41351 3.40721 10.3615C3.40721 11.3095 2.89621 12.1925 2.07521 12.6675C1.52621 12.9855 1.33621 13.6925 1.65421 14.2425L2.28521 15.3305C2.44121 15.6115 2.69621 15.8145 2.99121 15.8975C3.28521 15.9795 3.60921 15.9445 3.87921 15.7945C4.27621 15.5615 4.7382 15.4405 5.20221 15.4405C5.43121 15.4405 5.66021 15.4695 5.88421 15.5295C6.56021 15.7115 7.14721 16.1635 7.49521 16.7705C7.72121 17.1515 7.84621 17.5965 7.85021 18.0505C7.85021 18.7005 8.37221 19.2215 9.01421 19.2215H10.2672C10.9062 19.2215 11.4282 18.7035 11.4312 18.0645C11.4272 17.3585 11.7032 16.6875 12.2082 16.1825C12.7062 15.6845 13.4022 15.3855 14.0982 15.4055C14.5542 15.4165 14.9932 15.5395 15.3802 15.7595C15.9372 16.0785 16.6482 15.8885 16.9702 15.3385L17.6342 14.2315C17.7822 13.9765 17.8252 13.6565 17.7462 13.3615C17.6682 13.0665 17.4722 12.8105 17.2082 12.6595C16.5902 12.3035 16.1492 11.7295 15.9662 11.0415C15.7852 10.3665 15.8842 9.62951 16.2372 9.02251C16.4672 8.62251 16.8042 8.28551 17.2082 8.05351C17.7502 7.73651 17.9402 7.02751 17.6252 6.47551C17.6122 6.45351 17.6002 6.43051 17.5902 6.40651L17.0042 5.39051C16.6852 4.83551 15.9752 4.64451 15.4182 4.96151C14.8162 5.31751 14.1002 5.41951 13.4122 5.23851C12.7252 5.06051 12.1492 4.62551 11.7902 4.01151C11.5602 3.62751 11.4352 3.18051 11.4312 2.72551C11.4402 2.38351 11.3202 2.07651 11.1022 1.85151C10.8852 1.62751 10.5802 1.50051 10.2672 1.50051ZM9.64511 6.97461C11.5121 6.97461 13.0311 8.49461 13.0311 10.3616C13.0311 12.2286 11.5121 13.7466 9.64511 13.7466C7.77811 13.7466 6.25911 12.2286 6.25911 10.3616C6.25911 8.49461 7.77811 6.97461 9.64511 6.97461ZM9.64511 8.47461C8.60511 8.47461 7.75911 9.32161 7.75911 10.3616C7.75911 11.4016 8.60511 12.2466 9.64511 12.2466C10.6851 12.2466 11.5311 11.4016 11.5311 10.3616C11.5311 9.32161 10.6851 8.47461 9.64511 8.47461Z" fill="#828282"/>
</svg>
