<svg width="19" height="21" viewBox="0 0 19 21" fill="none" xmlns="http://www.w3.org/2000/svg">
<path fill-rule="evenodd" clip-rule="evenodd" d="M12.9499 0.841064C16.0939 0.841064 18.2059 2.99406 18.2059 6.19806V15.3941C18.2059 18.6261 16.1589 20.7281 12.9909 20.7481L5.29791 20.7511C2.15391 20.7511 0.0409088 18.5981 0.0409088 15.3941V6.19806C0.0409088 2.96506 2.08791 0.864064 5.25591 0.845064L12.9489 0.841064H12.9499ZM12.9499 2.34106L5.26091 2.34506C2.93291 2.35906 1.54091 3.79906 1.54091 6.19806V15.3941C1.54091 17.8091 2.94591 19.2511 5.29691 19.2511L12.9859 19.2481C15.3139 19.2341 16.7059 17.7921 16.7059 15.3941V6.19806C16.7059 3.78306 15.3019 2.34106 12.9499 2.34106ZM12.757 14.3148C13.171 14.3148 13.507 14.6508 13.507 15.0648C13.507 15.4788 13.171 15.8148 12.757 15.8148H5.53701C5.12301 15.8148 4.78701 15.4788 4.78701 15.0648C4.78701 14.6508 5.12301 14.3148 5.53701 14.3148H12.757ZM12.757 10.1283C13.171 10.1283 13.507 10.4643 13.507 10.8783C13.507 11.2923 13.171 11.6283 12.757 11.6283H5.53701C5.12301 11.6283 4.78701 11.2923 4.78701 10.8783C4.78701 10.4643 5.12301 10.1283 5.53701 10.1283H12.757ZM8.29171 5.95146C8.70571 5.95146 9.04171 6.28746 9.04171 6.70146C9.04171 7.11546 8.70571 7.45146 8.29171 7.45146H5.53671C5.12271 7.45146 4.78671 7.11546 4.78671 6.70146C4.78671 6.28746 5.12271 5.95146 5.53671 5.95146H8.29171Z" fill="#ADEFD1"/>
</svg>
