<svg width="21" height="20" viewBox="0 0 21 20" fill="none" xmlns="http://www.w3.org/2000/svg">
<path fill-rule="evenodd" clip-rule="evenodd" d="M9.47152 11.8178L13.1285 17.7508C13.2885 18.0108 13.5385 18.0078 13.6395 17.9938C13.7405 17.9798 13.9835 17.9178 14.0715 17.6228L18.6445 2.17782C18.7245 1.90482 18.5775 1.71882 18.5115 1.65282C18.4475 1.58683 18.2645 1.44582 17.9995 1.52083L2.54352 6.04682C2.25052 6.13282 2.18652 6.37883 2.17252 6.47983C2.15852 6.58283 2.15452 6.83782 2.41352 7.00082L8.41452 10.7538L13.7165 5.39582C14.0075 5.10182 14.4825 5.09882 14.7775 5.38982C15.0725 5.68082 15.0745 6.15682 14.7835 6.45082L9.47152 11.8178ZM13.5615 19.4998C12.8655 19.4998 12.2275 19.1458 11.8515 18.5378L7.97452 12.2468L1.61852 8.27182C0.933518 7.84282 0.575518 7.07882 0.686518 6.27583C0.796518 5.47283 1.34752 4.83482 2.12152 4.60782L17.5775 0.081825C18.2885 -0.126175 19.0505 0.070825 19.5745 0.592825C20.0985 1.11983 20.2935 1.88983 20.0815 2.60383L15.5085 18.0478C15.2795 18.8248 14.6395 19.3738 13.8385 19.4808C13.7445 19.4928 13.6535 19.4998 13.5615 19.4998Z" fill="#828282"/>
</svg>
