<svg width="19" height="20" viewBox="0 0 19 20" fill="none" xmlns="http://www.w3.org/2000/svg">
<path fill-rule="evenodd" clip-rule="evenodd" d="M13.242 0C16.386 0 18.498 2.153 18.498 5.357V14.553C18.498 17.785 16.451 19.887 13.283 19.907L5.58997 19.91C2.44597 19.91 0.332973 17.757 0.332973 14.553V5.357C0.332973 2.124 2.37997 0.023 5.54797 0.004L13.241 0H13.242ZM13.242 1.5L5.55297 1.504C3.22497 1.518 1.83297 2.958 1.83297 5.357V14.553C1.83297 16.968 3.23797 18.41 5.58897 18.41L13.278 18.407C15.606 18.393 16.998 16.951 16.998 14.553V5.357C16.998 2.942 15.594 1.5 13.242 1.5ZM13.0491 13.4737C13.4631 13.4737 13.7991 13.8097 13.7991 14.2237C13.7991 14.6377 13.4631 14.9737 13.0491 14.9737H5.82907C5.41507 14.9737 5.07907 14.6377 5.07907 14.2237C5.07907 13.8097 5.41507 13.4737 5.82907 13.4737H13.0491ZM13.0491 9.2872C13.4631 9.2872 13.7991 9.6232 13.7991 10.0372C13.7991 10.4512 13.4631 10.7872 13.0491 10.7872H5.82907C5.41507 10.7872 5.07907 10.4512 5.07907 10.0372C5.07907 9.6232 5.41507 9.2872 5.82907 9.2872H13.0491ZM8.58377 5.1104C8.99777 5.1104 9.33377 5.4464 9.33377 5.8604C9.33377 6.2744 8.99777 6.6104 8.58377 6.6104H5.82877C5.41477 6.6104 5.07877 6.2744 5.07877 5.8604C5.07877 5.4464 5.41477 5.1104 5.82877 5.1104H8.58377Z" fill="#828282"/>
</svg>
