<svg width="12" height="15" viewBox="0 0 12 15" fill="none" xmlns="http://www.w3.org/2000/svg">
<path d="M0.137924 10.931C0.137924 11.5759 0.4237 12.1547 0.870683 12.5578L0.870683 13.8621C0.870683 14.2651 1.20042 14.5948 1.60344 14.5948H2.3362C2.73922 14.5948 3.06896 14.2651 3.06896 13.8621V13.1293H8.93103V13.8621C8.93103 14.2651 9.26077 14.5948 9.66378 14.5948H10.3965C10.7996 14.5948 11.1293 14.2651 11.1293 13.8621V12.5578C11.5763 12.1547 11.8621 11.5759 11.8621 10.931V3.60345C11.8621 1.0388 9.23878 0.672417 5.99999 0.672417C2.7612 0.672417 0.137924 1.0388 0.137924 3.60345L0.137924 10.931ZM2.70258 11.6638C2.09439 11.6638 1.60344 11.1728 1.60344 10.5647C1.60344 9.95647 2.09439 9.46552 2.70258 9.46552C3.31077 9.46552 3.80172 9.95647 3.80172 10.5647C3.80172 11.1728 3.31077 11.6638 2.70258 11.6638ZM9.29741 11.6638C8.68922 11.6638 8.19827 11.1728 8.19827 10.5647C8.19827 9.95647 8.68922 9.46552 9.29741 9.46552C9.90559 9.46552 10.3965 9.95647 10.3965 10.5647C10.3965 11.1728 9.90559 11.6638 9.29741 11.6638ZM10.3965 7.26724L1.60344 7.26724L1.60344 3.60345L10.3965 3.60345V7.26724Z" fill="#00203F"/>
</svg>
