<svg width="22" height="21" viewBox="0 0 22 21" fill="none" xmlns="http://www.w3.org/2000/svg">
<path d="M20.4286 8.25L13.3571 8.25V1.5C13.3571 0.671719 12.6534 0 11.7857 0L10.2143 0C9.34656 0 8.64286 0.671719 8.64286 1.5V8.25H1.57143C0.703705 8.25 0 8.92172 0 9.75L0 11.25C0 12.0783 0.703705 12.75 1.57143 12.75H8.64286L8.64286 19.5C8.64286 20.3283 9.34656 21 10.2143 21H11.7857C12.6534 21 13.3571 20.3283 13.3571 19.5L13.3571 12.75L20.4286 12.75C21.2963 12.75 22 12.0783 22 11.25V9.75C22 8.92172 21.2963 8.25 20.4286 8.25Z" fill="#00203F"/>
</svg>
